ply
format ascii 1.0
element vertex 253
property float x
property float y
property float z
end_header
0.680333 -0.061722 0.730299
0.680333 -0.061722 0.730299
0.680333 -0.061722 0.730299
0.680333 -0.061722 0.730299
0.680333 -0.061722 0.730299
0.680333 -0.061722 0.730299
0.680333 -0.061722 0.730299
0.680333 -0.061722 0.730299
0.680333 -0.061722 0.730299
0.680333 -0.061722 0.730299
0.680333 -0.061722 0.730299
0.680333 -0.061722 0.730299
0.680333 -0.061722 0.730299
0.680333 -0.061722 0.730299
0.680333 -0.061722 0.730299
0.680333 -0.061722 0.730299
0.680333 -0.061722 0.730299
0.680333 -0.061722 0.730299
0.680333 -0.061722 0.730299
0.680333 -0.061722 0.730299
0.680333 -0.061722 0.730299
0.680333 -0.061722 0.730299
0.680333 -0.061722 0.730299
0.680333 -0.061722 0.730299
0.680333 -0.061722 0.730299
0.680333 -0.061722 0.730299
0.680333 -0.061722 0.730299
0.680333 -0.061722 0.730299
0.680333 -0.061722 0.730299
0.680333 -0.061722 0.730299
0.680333 -0.061722 0.730299
0.680333 -0.061722 0.730299
0.680333 -0.061722 0.730299
0.680333 -0.061722 0.730299
0.680333 -0.061722 0.730299
0.680333 -0.061722 0.730299
0.680333 -0.061722 0.730299
0.680333 -0.061722 0.730299
0.680333 -0.061722 0.730299
0.680333 -0.061722 0.730299
0.680333 -0.061722 0.730299
0.680333 -0.061722 0.730299
0.680333 -0.061722 0.730299
0.680333 -0.061722 0.730299
0.680333 -0.061722 0.730299
0.680333 -0.061722 0.730299
0.680333 -0.061722 0.730299
0.680333 -0.061722 0.730299
0.680333 -0.061722 0.730299
0.680333 -0.061722 0.730299
0.680333 -0.061722 0.730299
0.680333 -0.061722 0.730299
0.680333 -0.061722 0.730299
0.680333 -0.061722 0.730299
0.680333 -0.061722 0.730299
0.680333 -0.061722 0.730299
0.680333 -0.061722 0.730299
0.680333 -0.061722 0.730299
0.680333 -0.061722 0.730299
0.680333 -0.061722 0.730299
0.680333 -0.061722 0.730299
0.680333 -0.061722 0.730299
0.680333 -0.061722 0.730299
0.680333 -0.061722 0.730299
0.680333 -0.061722 0.730299
0.680333 -0.061722 0.730299
0.680333 -0.061722 0.730299
0.680333 -0.061722 0.730299
0.680333 -0.061722 0.730299
0.680333 -0.061722 0.730299
0.680333 -0.061722 0.730299
0.680333 -0.061722 0.730299
0.680333 -0.061722 0.730299
0.680333 -0.061722 0.730299
0.680333 -0.061722 0.730299
0.680333 -0.061722 0.730299
0.680333 -0.061722 0.730299
0.680333 -0.061722 0.730299
0.680333 -0.061722 0.730299
0.680333 -0.061722 0.730299
0.680333 -0.061722 0.730299
0.680333 -0.061722 0.730299
0.680333 -0.061722 0.730299
0.680333 -0.061722 0.730299
0.680333 -0.061722 0.730299
0.680333 -0.061722 0.730299
0.680333 -0.061722 0.730299
0.680333 -0.061722 0.730299
0.680333 -0.061722 0.730299
0.680333 -0.061722 0.730299
0.680333 -0.061722 0.730299
0.680333 -0.061722 0.730299
0.680333 -0.061722 0.730299
0.680333 -0.061722 0.730299
0.680333 -0.061722 0.730299
0.680333 -0.061722 0.730299
0.680333 -0.061722 0.730299
0.680333 -0.061722 0.730299
0.680333 -0.061722 0.730299
0.680333 -0.061722 0.730299
0.680333 -0.061722 0.730299
0.680333 -0.061722 0.730299
0.680333 -0.061722 0.730299
0.680333 -0.061722 0.730299
0.680333 -0.061722 0.730299
0.680333 -0.061722 0.730299
0.680333 -0.061722 0.730299
0.680333 -0.061722 0.730299
0.680333 -0.061722 0.730299
0.680333 -0.061722 0.730299
0.680333 -0.061722 0.730299
0.680333 -0.061722 0.730299
0.680333 -0.061722 0.730299
0.680333 -0.061722 0.730299
0.680333 -0.061722 0.730299
0.680333 -0.061722 0.730299
0.680333 -0.061722 0.730299
0.680333 -0.061722 0.730299
0.680333 -0.061722 0.730299
0.680333 -0.061722 0.730299
0.680333 -0.061722 0.730299
0.680333 -0.061722 0.730299
0.680333 -0.061722 0.730299
0.680333 -0.061722 0.730299
0.680333 -0.061722 0.730299
0.680333 -0.061722 0.730299
0.680333 -0.061722 0.730299
0.680333 -0.061722 0.730299
0.680333 -0.061722 0.730299
0.680333 -0.061722 0.730299
0.680333 -0.061722 0.730299
0.680333 -0.061722 0.730299
0.680333 -0.061722 0.730299
0.680333 -0.061722 0.730299
0.680333 -0.061722 0.730299
0.680333 -0.061722 0.730299
0.680333 -0.061722 0.730299
0.680333 -0.061722 0.730299
0.680333 -0.061722 0.730299
0.680333 -0.061722 0.730299
0.680333 -0.061722 0.730299
0.680333 -0.061722 0.730299
0.680333 -0.061722 0.730299
0.680333 -0.061722 0.730299
0.680333 -0.061722 0.730299
0.680333 -0.061722 0.730299
0.680333 -0.061722 0.730299
0.680333 -0.061722 0.730299
0.680333 -0.061722 0.730299
0.680333 -0.061722 0.730299
0.680333 -0.061722 0.730299
0.680333 -0.061722 0.730299
0.680333 -0.061722 0.730299
0.680333 -0.061722 0.730299
0.680333 -0.061722 0.730299
0.680333 -0.061722 0.730299
0.680333 -0.061722 0.730299
0.680333 -0.061722 0.730299
0.680333 -0.061722 0.730299
0.680333 -0.061722 0.730299
0.680333 -0.061722 0.730299
0.680333 -0.061722 0.730299
0.680333 -0.061722 0.730299
0.680333 -0.061722 0.730299
0.680333 -0.061722 0.730299
0.680333 -0.061722 0.730299
0.680333 -0.061722 0.730299
0.680333 -0.061722 0.730299
0.680333 -0.061722 0.730299
0.680333 -0.061722 0.730299
0.680333 -0.061722 0.730299
0.680333 -0.061722 0.730299
0.680333 -0.061722 0.730299
0.680333 -0.061722 0.730299
0.680333 -0.061722 0.730299
0.680333 -0.061722 0.730299
0.680333 -0.061722 0.730299
0.680333 -0.061722 0.730299
0.680333 -0.061722 0.730299
0.680333 -0.061722 0.730299
0.680333 -0.061722 0.730299
0.680333 -0.061722 0.730299
0.680333 -0.061722 0.730299
0.680333 -0.061722 0.730299
0.680333 -0.061722 0.730299
0.680333 -0.061722 0.730299
0.680333 -0.061722 0.730299
0.680333 -0.061722 0.730299
0.680333 -0.061722 0.730299
0.680333 -0.061722 0.730299
0.680333 -0.061722 0.730299
0.680333 -0.061722 0.730299
0.680333 -0.061722 0.730299
0.680333 -0.061722 0.730299
0.680333 -0.061722 0.730299
0.680333 -0.061722 0.730299
0.680333 -0.061722 0.730299
0.680333 -0.061722 0.730299
0.680333 -0.061722 0.730299
0.680333 -0.061722 0.730299
0.680333 -0.061722 0.730299
0.680333 -0.061722 0.730299
0.680333 -0.061722 0.730299
0.680333 -0.061722 0.730299
0.680333 -0.061722 0.730299
0.680333 -0.061722 0.730299
0.680333 -0.061722 0.730299
0.680333 -0.061722 0.730299
0.680333 -0.061722 0.730299
0.680333 -0.061722 0.730299
0.680333 -0.061722 0.730299
0.680333 -0.061722 0.730299
0.680333 -0.061722 0.730299
0.680333 -0.061722 0.730299
0.680333 -0.061722 0.730299
0.680333 -0.061722 0.730299
0.680333 -0.061722 0.730299
0.680333 -0.061722 0.730299
0.680333 -0.061722 0.730299
0.680333 -0.061722 0.730299
0.680333 -0.061722 0.730299
0.680333 -0.061722 0.730299
0.680333 -0.061722 0.730299
0.680333 -0.061722 0.730299
0.680333 -0.061722 0.730299
0.680333 -0.061722 0.730299
0.680333 -0.061722 0.730299
0.680333 -0.061722 0.730299
0.680333 -0.061722 0.730299
0.680333 -0.061722 0.730299
0.680333 -0.061722 0.730299
0.680333 -0.061722 0.730299
0.680333 -0.061722 0.730299
0.680333 -0.061722 0.730299
0.680333 -0.061722 0.730299
0.680333 -0.061722 0.730299
0.680333 -0.061722 0.730299
0.680333 -0.061722 0.730299
0.680333 -0.061722 0.730299
0.680333 -0.061722 0.730299
0.680333 -0.061722 0.730299
0.680333 -0.061722 0.730299
0.680333 -0.061722 0.730299
0.680333 -0.061722 0.730299
0.680333 -0.061722 0.730299
0.680333 -0.061722 0.730299
0.680333 -0.061722 0.730299
0.680333 -0.061722 0.730299
0.680333 -0.061722 0.730299
0.680333 -0.061722 0.730299
0.680333 -0.061722 0.730299
0.680333 -0.061722 0.730299
0.680333 -0.061722 0.730299
