ply
format ascii 1.0
element vertex 229
property float x
property float y
property float z
end_header
0.316927 -0.111813 0.692801
0.916621 0.153114 -1.234406
-0.560199 -0.435279 3.648761
0.266509 -0.074036 0.864550
0.378621 -0.048379 0.529266
3.703859 0.124240 -10.666461
0.106121 0.001747 0.813083
4.132872 -0.302791 -12.110328
0.201363 0.022497 1.065715
-0.959972 0.280418 4.966373
-1.483449 0.419754 6.735802
0.283381 0.046897 0.805446
-1.306630 0.048119 3.460777
0.275223 0.077238 0.869399
0.258858 0.151967 0.946479
0.332992 0.137191 0.706011
0.439948 0.059595 0.630881
-0.496280 0.167694 1.253400
0.462788 -0.065835 0.852884
0.336705 -0.080786 0.622256
1.323981 0.215313 -2.306102
-0.580089 -0.341396 3.714876
-4.167935 0.154703 6.339474
0.247324 -0.029812 0.942955
0.202281 0.016403 1.062880
-5.870028 1.059318 21.510123
0.387277 0.041390 0.473134
0.023334 0.490337 5.422069
0.298878 0.148625 0.811112
0.293172 -0.114713 0.774719
-0.717848 -0.410771 4.318114
1.463469 0.196546 -3.125028
1.424159 0.180709 -3.511743
0.228554 -0.032858 1.001928
0.240281 -0.000623 0.931156
0.214163 0.132603 5.027189
47.205645 -8.228410 -157.426234
0.235404 0.069899 0.974029
0.378823 0.041478 0.475925
4.299208 -0.608016 -5.995689
0.213237 0.064265 0.519559
0.293588 0.156775 0.856358
0.218983 -0.168178 1.028512
0.667121 -0.105946 1.096000
4.240562 0.246773 -5.403479
1.035485 0.172983 -1.557857
1.018007 0.151767 -1.490321
1.789280 0.469222 -9.991682
0.410166 -0.117830 1.519599
0.921489 -0.043210 1.262873
0.926337 0.148725 -1.470915
1.024225 0.158575 -1.674464
1.487529 0.170037 -2.445567
0.999058 0.168659 -1.909494
1.097182 0.165973 -2.140906
1.011822 0.171375 -1.987917
1.343936 0.171520 -2.517735
0.236041 -0.068553 0.964350
1.749168 -0.083931 -3.188846
1.044082 0.171527 -2.275182
-3.053908 -0.623005 12.031815
-0.258923 0.033350 0.790918
0.310943 -0.038062 0.722979
0.320907 -0.021476 0.670941
-0.205607 -0.049491 0.750530
-0.660633 -0.023647 3.994212
-0.154860 0.032771 0.629902
2.000505 -0.097484 -4.919884
0.057863 0.032045 1.540658
-0.013700 0.045012 1.773843
0.127166 0.043369 1.309605
0.112905 0.050982 1.360506
0.092344 0.059813 1.428933
0.334313 0.024154 0.627720
0.336472 0.024702 0.620239
-1.023761 0.241314 5.180107
0.015881 0.075924 1.683721
-0.003203 0.099990 1.769626
0.219128 0.066636 1.027101
0.265901 0.056813 0.875007
48.730608 -11.603540 -162.590941
0.233128 0.067710 0.981937
0.053392 0.118152 1.582294
-0.085178 0.157893 2.061091
-0.558065 0.057587 0.725739
1.216964 -0.267906 -1.995311
0.386350 0.039618 0.467973
0.453658 0.072050 0.566674
0.469233 0.073868 0.582021
0.161104 0.191266 1.259333
0.420759 0.128013 0.656333
0.306833 0.159721 0.795967
0.394234 0.111454 0.619448
0.349411 0.186856 0.913444
0.352361 0.181093 0.885135
-0.062513 0.198588 0.937102
0.416126 0.113342 0.605812
-0.628837 0.193976 0.882328
0.380628 -0.010406 0.524264
0.244434 -0.088044 0.939633
0.310509 -0.057621 0.710687
0.192937 -0.015226 1.136734
0.583808 -0.000779 0.925374
0.151033 -0.023837 1.222382
1.493770 0.039427 -3.221895
-0.069534 -0.086507 0.878848
-0.319500 0.054244 2.476043
0.061932 0.044823 1.530799
0.949089 -0.007576 1.360077
-1.524121 0.321337 6.872299
0.067901 0.070040 1.514236
0.373369 0.022167 0.533836
-0.018697 0.113365 1.821666
0.373187 0.042024 0.532020
0.373744 0.033815 0.533123
0.298003 0.055094 0.763892
0.322849 0.050398 0.677757
0.378828 0.036652 0.506642
3.088089 -1.611654 -11.320934
0.363212 0.051581 0.568230
0.641202 0.093703 0.753850
0.027249 0.085491 0.627597
0.390748 0.055100 0.462025
1.836469 -0.666602 -4.416553
0.259428 0.074586 0.529255
-0.238337 0.081832 0.658987
-0.236238 0.081722 0.658331
0.357148 0.078660 0.585761
0.934285 0.179584 1.342130
0.975841 -0.251947 -1.593195
1.349768 -0.531080 -3.061151
1.381327 -0.528299 -3.035370
0.516527 0.159309 0.907680
0.322085 -0.100487 0.674741
1.010236 0.159665 -1.466648
0.357143 -0.032391 0.538086
0.326183 -0.051626 0.655376
1.132255 0.119108 -2.030834
1.372798 0.145792 -3.063204
0.234136 -0.004887 0.806365
-0.146837 -0.038706 0.927785
0.653977 -0.010244 1.778381
0.059932 0.031977 1.537774
0.964569 -0.048513 -1.473593
0.101003 0.072789 1.407089
0.052853 0.133242 1.022991
2.716963 -0.585109 -7.415183
0.385714 0.044290 0.467954
0.351398 0.076819 0.602944
0.860018 -0.075925 -2.083672
0.168247 0.294635 1.471571
0.268394 0.139656 0.725672
0.347660 0.177827 0.870321
0.788295 0.192021 2.717192
0.713090 0.219199 3.038106
2.721883 -1.886893 -8.046400
0.663036 -0.091359 1.083918
0.189554 -0.072695 0.648821
0.175506 -0.020622 0.512342
0.359033 -0.027326 0.622229
0.912032 0.136229 -1.285412
0.911575 0.135870 -1.300604
-0.730195 -0.118883 1.137103
-0.823581 -0.025285 1.735638
0.366709 -0.040031 0.566245
-0.204377 0.026921 0.771336
-7.442034 -0.891840 26.787317
0.131325 -0.043033 1.284694
0.360770 -0.021238 0.574507
0.381213 0.030121 0.484303
1.946391 -0.355454 -3.022757
2.258814 -0.523314 -5.506821
-5.908566 -8.278911 -110.171511
-0.585560 0.489920 3.862699
-0.710847 0.259320 2.537754
0.377415 0.066168 0.512166
0.328525 0.097999 0.688858
2.829331 -1.273663 -8.145211
2.915181 -1.333032 -8.531650
1.751350 -0.778119 -4.696410
1.709301 -0.726007 -4.290562
1.628405 -0.670095 -3.920265
1.527443 -0.562066 -3.178937
1.492755 -0.530370 -2.966946
1.766591 -0.464337 -3.300101
-0.365119 -0.254712 2.991957
0.373593 -0.047901 0.546010
1.229269 0.157292 -2.480081
0.097798 0.087948 0.664208
1.346218 -0.480924 -2.903507
1.279911 -0.401371 -2.357471
1.883540 -0.036790 -3.180942
1.110162 0.422083 2.583973
0.010884 0.338984 1.643306
-1.301208 -0.129216 2.393180
-0.143469 -0.120161 0.650843
0.187629 -0.054618 1.096959
-0.183155 0.063765 0.671720
-2.315394 -0.298274 5.306360
3.412079 0.311812 -8.040227
-1.342876 -0.138128 3.332029
1.246831 0.278722 -3.289810
0.463631 0.074105 0.841800
0.525322 0.003867 1.651778
-2.517312 -0.543672 22.310171
-1.348271 -0.060515 2.013029
1.270961 0.159362 -2.130245
0.007879 -0.067123 0.709203
-0.025585 -0.086625 0.682588
0.151238 -0.055889 0.552816
0.390560 0.041718 0.693246
1.308901 -0.089912 -1.954343
0.908174 -0.064772 -1.572854
0.312350 0.033101 0.715513
-0.588841 0.081898 0.790985
-0.294676 0.040501 -16.820932
-0.475438 0.114397 1.828247
1.313716 -0.779361 -5.169175
0.761229 0.104626 0.933739
-7.222638 3.705732 27.240416
1.002986 0.134060 1.654884
-1.342414 0.412705 3.385292
1.907695 -0.482771 -2.959160
0.578046 -0.041548 0.954809
-0.167925 -0.087082 0.656949
1.543059 -0.253250 -1.942895
0.382173 -0.070788 0.476267
0.419287 0.068100 0.712636
-0.569756 0.208057 1.147731
