ply
format ascii 1.0
element vertex 229
property float x
property float y
property float z
end_header
0.958370 0.006464 0.285455
0.958370 0.006464 0.285455
0.958370 0.006464 0.285455
0.958370 0.006464 0.285455
0.958370 0.006464 0.285455
0.958370 0.006464 0.285455
0.958370 0.006464 0.285455
0.958370 0.006464 0.285455
0.958370 0.006464 0.285455
0.958370 0.006464 0.285455
0.958370 0.006464 0.285455
0.958370 0.006464 0.285455
0.958370 0.006464 0.285455
0.958370 0.006464 0.285455
0.958370 0.006464 0.285455
0.958370 0.006464 0.285455
0.958370 0.006464 0.285455
0.958370 0.006464 0.285455
0.958370 0.006464 0.285455
0.958370 0.006464 0.285455
0.958370 0.006464 0.285455
0.958370 0.006464 0.285455
0.958370 0.006464 0.285455
0.958370 0.006464 0.285455
0.958370 0.006464 0.285455
0.958370 0.006464 0.285455
0.958370 0.006464 0.285455
0.958370 0.006464 0.285455
0.958370 0.006464 0.285455
0.958370 0.006464 0.285455
0.958370 0.006464 0.285455
0.958370 0.006464 0.285455
0.958370 0.006464 0.285455
0.958370 0.006464 0.285455
0.958370 0.006464 0.285455
0.958370 0.006464 0.285455
0.958370 0.006464 0.285455
0.958370 0.006464 0.285455
0.958370 0.006464 0.285455
0.958370 0.006464 0.285455
0.958370 0.006464 0.285455
0.958370 0.006464 0.285455
0.958370 0.006464 0.285455
0.958370 0.006464 0.285455
0.958370 0.006464 0.285455
0.958370 0.006464 0.285455
0.958370 0.006464 0.285455
0.958370 0.006464 0.285455
0.958370 0.006464 0.285455
0.958370 0.006464 0.285455
0.958370 0.006464 0.285455
0.958370 0.006464 0.285455
0.958370 0.006464 0.285455
0.958370 0.006464 0.285455
0.958370 0.006464 0.285455
0.958370 0.006464 0.285455
0.958370 0.006464 0.285455
0.958370 0.006464 0.285455
0.958370 0.006464 0.285455
0.958370 0.006464 0.285455
0.958370 0.006464 0.285455
0.958370 0.006464 0.285455
0.958370 0.006464 0.285455
0.958370 0.006464 0.285455
0.958370 0.006464 0.285455
0.958370 0.006464 0.285455
0.958370 0.006464 0.285455
0.958370 0.006464 0.285455
0.958370 0.006464 0.285455
0.958370 0.006464 0.285455
0.958370 0.006464 0.285455
0.958370 0.006464 0.285455
0.958370 0.006464 0.285455
0.958370 0.006464 0.285455
0.958370 0.006464 0.285455
0.958370 0.006464 0.285455
0.958370 0.006464 0.285455
0.958370 0.006464 0.285455
0.958370 0.006464 0.285455
0.958370 0.006464 0.285455
0.958370 0.006464 0.285455
0.958370 0.006464 0.285455
0.958370 0.006464 0.285455
0.958370 0.006464 0.285455
0.958370 0.006464 0.285455
0.958370 0.006464 0.285455
0.958370 0.006464 0.285455
0.958370 0.006464 0.285455
0.958370 0.006464 0.285455
0.958370 0.006464 0.285455
0.958370 0.006464 0.285455
0.958370 0.006464 0.285455
0.958370 0.006464 0.285455
0.958370 0.006464 0.285455
0.958370 0.006464 0.285455
0.958370 0.006464 0.285455
0.958370 0.006464 0.285455
0.958370 0.006464 0.285455
0.958370 0.006464 0.285455
0.958370 0.006464 0.285455
0.958370 0.006464 0.285455
0.958370 0.006464 0.285455
0.958370 0.006464 0.285455
0.958370 0.006464 0.285455
0.958370 0.006464 0.285455
0.958370 0.006464 0.285455
0.958370 0.006464 0.285455
0.958370 0.006464 0.285455
0.958370 0.006464 0.285455
0.958370 0.006464 0.285455
0.958370 0.006464 0.285455
0.958370 0.006464 0.285455
0.958370 0.006464 0.285455
0.958370 0.006464 0.285455
0.958370 0.006464 0.285455
0.958370 0.006464 0.285455
0.958370 0.006464 0.285455
0.958370 0.006464 0.285455
0.958370 0.006464 0.285455
0.958370 0.006464 0.285455
0.958370 0.006464 0.285455
0.958370 0.006464 0.285455
0.958370 0.006464 0.285455
0.958370 0.006464 0.285455
0.958370 0.006464 0.285455
0.958370 0.006464 0.285455
0.958370 0.006464 0.285455
0.958370 0.006464 0.285455
0.958370 0.006464 0.285455
0.958370 0.006464 0.285455
0.958370 0.006464 0.285455
0.958370 0.006464 0.285455
0.958370 0.006464 0.285455
0.958370 0.006464 0.285455
0.958370 0.006464 0.285455
0.958370 0.006464 0.285455
0.958370 0.006464 0.285455
0.958370 0.006464 0.285455
0.958370 0.006464 0.285455
0.958370 0.006464 0.285455
0.958370 0.006464 0.285455
0.958370 0.006464 0.285455
0.958370 0.006464 0.285455
0.958370 0.006464 0.285455
0.958370 0.006464 0.285455
0.958370 0.006464 0.285455
0.958370 0.006464 0.285455
0.958370 0.006464 0.285455
0.958370 0.006464 0.285455
0.958370 0.006464 0.285455
0.958370 0.006464 0.285455
0.958370 0.006464 0.285455
0.958370 0.006464 0.285455
0.958370 0.006464 0.285455
0.958370 0.006464 0.285455
0.958370 0.006464 0.285455
0.958370 0.006464 0.285455
0.958370 0.006464 0.285455
0.958370 0.006464 0.285455
0.958370 0.006464 0.285455
0.958370 0.006464 0.285455
0.958370 0.006464 0.285455
0.958370 0.006464 0.285455
0.958370 0.006464 0.285455
0.958370 0.006464 0.285455
0.958370 0.006464 0.285455
0.958370 0.006464 0.285455
0.958370 0.006464 0.285455
0.958370 0.006464 0.285455
0.958370 0.006464 0.285455
0.958370 0.006464 0.285455
0.958370 0.006464 0.285455
0.958370 0.006464 0.285455
0.958370 0.006464 0.285455
0.958370 0.006464 0.285455
0.958370 0.006464 0.285455
0.958370 0.006464 0.285455
0.958370 0.006464 0.285455
0.958370 0.006464 0.285455
0.958370 0.006464 0.285455
0.958370 0.006464 0.285455
0.958370 0.006464 0.285455
0.958370 0.006464 0.285455
0.958370 0.006464 0.285455
0.958370 0.006464 0.285455
0.958370 0.006464 0.285455
0.958370 0.006464 0.285455
0.958370 0.006464 0.285455
0.958370 0.006464 0.285455
0.958370 0.006464 0.285455
0.958370 0.006464 0.285455
0.958370 0.006464 0.285455
0.958370 0.006464 0.285455
0.958370 0.006464 0.285455
0.958370 0.006464 0.285455
0.958370 0.006464 0.285455
0.958370 0.006464 0.285455
0.958370 0.006464 0.285455
0.958370 0.006464 0.285455
0.958370 0.006464 0.285455
0.958370 0.006464 0.285455
0.958370 0.006464 0.285455
0.958370 0.006464 0.285455
0.958370 0.006464 0.285455
0.958370 0.006464 0.285455
0.958370 0.006464 0.285455
0.958370 0.006464 0.285455
0.958370 0.006464 0.285455
0.958370 0.006464 0.285455
0.958370 0.006464 0.285455
0.958370 0.006464 0.285455
0.958370 0.006464 0.285455
0.958370 0.006464 0.285455
0.958370 0.006464 0.285455
0.958370 0.006464 0.285455
0.958370 0.006464 0.285455
0.958370 0.006464 0.285455
0.958370 0.006464 0.285455
0.958370 0.006464 0.285455
0.958370 0.006464 0.285455
0.958370 0.006464 0.285455
0.958370 0.006464 0.285455
0.958370 0.006464 0.285455
0.958370 0.006464 0.285455
0.958370 0.006464 0.285455
0.958370 0.006464 0.285455
0.958370 0.006464 0.285455
0.958370 0.006464 0.285455
0.958370 0.006464 0.285455
