ply
format ascii 1.0
element vertex 253
property float x
property float y
property float z
end_header
0.130092 -0.115320 0.555113
-0.236855 -0.133293 0.873506
-0.159352 -0.086767 0.558106
0.012820 -0.010837 0.019795
-0.029901 -0.112360 0.709613
-0.025807 -0.102796 0.705769
-0.136003 -0.114001 0.801467
0.084494 -0.068192 0.722204
0.158485 -0.026127 0.529398
-0.002312 -0.008781 -0.000906
-0.305545 0.020531 0.412610
-0.085040 0.033663 0.183296
0.038331 0.028901 0.356312
0.079268 0.019360 0.616914
0.038856 0.021545 0.656863
0.077694 0.022877 0.618703
0.043066 -0.022786 0.365194
0.038501 0.028077 0.669397
-0.335004 0.040049 1.015479
0.086228 0.034437 0.611834
0.174183 0.031817 0.676247
0.037729 0.042925 0.659646
0.119267 0.030384 0.615864
0.036005 0.051393 0.662291
0.093241 -0.125220 0.589433
-0.238150 -0.133341 0.873718
-0.379276 -0.127633 1.050123
0.120081 -0.094956 0.562982
0.249790 -0.075687 0.442370
0.118682 -0.091777 0.565802
-0.106371 -0.124404 0.781614
0.232189 -0.056235 0.460448
-0.300785 -0.130746 0.970776
-0.286266 -0.127670 0.958867
-0.178793 -0.138188 0.805336
-0.047860 -0.088590 0.730635
0.302767 -0.066710 0.620373
0.287165 -0.018242 0.398284
-0.676449 0.013708 1.339820
0.127743 0.024667 0.568893
0.127769 0.028724 0.569259
-0.258303 0.033984 0.692262
0.119753 0.034677 0.577607
0.061900 0.037641 0.659281
-0.003545 0.056310 0.705967
0.006571 -0.115531 0.751139
0.229752 -0.081458 0.461045
0.014537 -0.119753 0.673520
-0.511810 -0.214274 1.157807
-0.511799 -0.213475 1.157936
-0.511763 -0.211076 1.158316
-0.025001 -0.105221 0.705464
0.014434 -0.061111 0.677839
-0.024888 -0.103744 0.705669
0.014495 -0.058288 0.678299
0.399543 -0.101899 0.792738
0.015772 -0.047702 0.680326
0.043013 -0.005337 0.198598
-0.269702 -0.121586 0.943406
0.063080 -0.074118 0.623187
0.093624 -0.067740 0.593622
-0.070617 -0.083488 0.751819
-0.213032 -0.060658 0.641423
0.249862 -0.035931 0.444982
-0.182892 -0.015030 0.281837
0.026768 -0.060787 0.666140
0.020608 -0.029366 0.900207
0.014726 -0.029631 0.681508
0.021531 -0.068493 0.372053
-0.054545 -0.041038 0.739467
-0.066043 -0.022133 0.952394
0.235225 -0.005842 0.457713
0.110091 -0.008709 0.583870
-0.585796 0.059514 0.770004
0.089100 0.019305 0.606595
0.045705 0.048109 0.653037
-0.049600 -0.015940 0.087741
-0.036133 0.079853 0.736076
0.309137 -0.111297 0.693611
0.061196 -0.128150 0.773498
-0.176012 -0.150270 0.715755
-0.170999 -0.149962 0.715807
0.042618 -0.133568 0.645192
0.120784 -0.104987 0.562800
-0.067988 -0.152174 0.773240
0.018473 -0.029823 0.238808
-0.146967 -0.149891 0.757746
-0.150211 -0.180388 0.929299
-0.119106 -0.164867 0.856624
-0.075143 -0.142961 0.755267
-0.071948 -0.142746 0.755140
-0.032011 -0.065979 0.673150
0.014734 -0.065906 0.677040
0.053568 -0.101147 0.635668
0.428558 -0.060623 0.546987
0.317170 -0.065456 0.701980
0.116318 -0.077220 0.571938
-0.158300 -0.033674 0.972835
0.479557 -0.078648 0.679664
0.185731 -0.063535 0.505892
0.083194 -0.081400 0.753668
0.028933 -0.081377 0.662670
-0.293418 -0.119134 0.964030
-0.228087 -0.111075 0.915161
-1.095541 0.014776 1.566449
0.038746 -0.087978 0.755916
0.078315 -0.074179 0.404940
-0.256691 0.004039 0.605546
-0.224114 -0.092442 0.897677
0.152312 -0.074696 0.518287
-0.065290 -0.096609 0.907487
-0.051571 -0.097391 0.915233
-0.250237 -0.088261 0.923481
0.201873 -0.040501 0.490395
0.141492 -0.040276 0.546741
-0.079565 -0.060166 0.761720
0.204427 -0.029717 0.488641
0.015384 -0.032388 0.680831
-0.662176 -0.084273 1.303965
0.294756 -0.014264 0.391860
-0.122510 -0.021175 0.327507
0.256573 -0.011456 0.432367
0.252877 -0.011309 0.435571
-0.500613 -0.053072 1.159574
0.043264 -0.057094 0.383433
-0.888628 -0.006557 1.387977
0.083066 -0.015196 0.609122
0.035137 -0.065070 0.679012
0.181687 -0.006216 0.513309
-0.138399 -0.012917 0.831881
0.142419 -0.003665 0.552634
0.036274 -0.063036 0.678819
-0.592867 0.063649 1.199243
-0.588748 0.063357 1.197732
0.036321 -0.060679 0.678732
0.146118 -0.017812 0.817534
-0.228819 -0.042769 0.637802
-0.903273 -0.009352 1.392061
0.044306 0.002635 0.651104
0.068942 0.004040 0.624209
-1.042926 -0.057061 1.556536
-0.141758 0.039024 0.212771
-0.178952 0.032708 0.717322
-0.009346 0.001770 0.942529
0.166931 0.012955 0.529512
-0.263833 0.019656 0.951903
-0.269690 0.021231 0.953269
0.107363 0.018295 0.589069
-0.272624 0.022020 0.953953
-0.048392 0.021494 0.741737
-1.016331 0.039384 1.654683
0.298888 0.019939 0.612117
0.154162 0.023064 0.587291
-0.489255 0.054078 1.170943
0.117810 0.036804 0.579907
-1.144444 0.122842 1.724270
-0.027256 0.046940 0.728577
0.123617 0.039390 0.561425
-0.721728 0.079073 1.384645
0.068201 0.044793 0.630658
-0.458204 -0.012553 1.275173
-0.149091 -0.003320 1.159971
-0.035108 0.079759 0.736054
-0.010053 0.079076 0.722568
-0.407055 0.010352 0.771599
-0.256110 -0.010090 0.739344
0.024707 -0.126176 0.663110
-0.366861 -0.191410 1.028041
0.334359 -0.059537 0.424207
-0.129556 0.024522 0.311675
-0.140110 -0.108399 0.986176
0.296895 -0.053055 0.394095
-0.056703 -0.032799 0.945532
0.153473 -0.060885 0.664237
-0.370974 -0.074732 1.041195
0.290481 -0.017044 0.394275
0.555412 -0.052927 0.742172
0.140220 -0.037678 0.763958
-1.113773 -0.104010 1.726167
0.125006 -0.025151 0.567873
-0.410018 -0.036928 1.080165
0.073797 -0.013394 0.618146
0.102870 -0.011395 0.589547
0.101434 -0.003064 0.591665
-1.127789 -0.027856 1.745813
0.142448 0.000272 0.552980
0.084556 0.000780 0.609159
0.239215 0.011567 0.476333
0.087314 0.037164 0.620172
-0.017940 0.060139 0.720346
-0.225262 0.075125 0.922330
-0.037327 0.063356 0.740113
-0.079571 0.080131 0.783778
-0.145319 0.068058 1.084800
-0.157986 -0.170254 0.905873
-0.135553 -0.167512 0.901152
0.130234 -0.042218 0.901974
0.283499 -0.032053 0.409091
0.020780 -0.023200 0.919261
0.028798 -0.021120 0.667336
0.096502 -0.017177 0.596127
-0.257494 0.047824 1.031693
-0.233414 0.000526 0.641706
-0.467639 0.082096 1.057560
-0.308054 -0.063465 0.619340
-0.286875 0.101716 1.004883
-0.100036 0.095593 1.016657
-0.379121 -0.206273 1.037803
-0.327762 -0.136913 0.994741
0.068749 -0.040589 0.844992
0.208010 -0.083985 0.753549
-0.060982 -0.060264 0.745722
-0.826376 -0.120018 1.453923
-0.261155 -0.068384 0.914618
-0.255680 -0.068280 0.913552
-0.223192 -0.063659 0.858092
-0.214814 0.043156 0.327051
-0.590337 0.035320 1.344450
0.274369 -0.036301 0.628086
0.478570 -0.019724 0.732079
-0.013356 -0.073797 0.816424
-0.372014 0.001363 0.627186
-0.471561 -0.082136 0.843813
0.116979 -0.101537 0.568453
0.072689 -0.112006 0.851875
0.395103 -0.063906 0.855104
0.120430 -0.084124 0.779215
0.124770 -0.083943 0.778841
0.112786 -0.049529 0.419855
0.313138 -0.059331 0.935638
-0.473642 -0.103938 1.132627
0.012421 -0.064741 0.682236
-0.244769 -0.068073 0.911428
-0.167185 -0.068799 0.939533
-0.094759 -0.057766 0.817896
0.255330 -0.010153 0.432331
-0.333922 0.029573 1.012668
0.094520 0.029035 0.603501
0.355817 -0.091306 0.801337
0.387560 -0.093403 0.757656
-0.534599 0.092547 0.710635
0.128183 0.020679 0.974258
0.008117 -0.094656 0.682871
0.008759 -0.085100 0.684073
-0.028179 -0.018620 0.094509
-0.262692 -0.180546 0.821372
-0.014677 -0.089232 0.486745
-0.627551 -0.173029 0.862712
-0.663013 -0.058232 1.116873
-0.041042 -0.019359 0.754240
0.571708 -0.076996 0.777592
-0.256068 -0.057899 0.825786
-0.607636 0.131910 1.168373
